# Blender v3.2.1 OBJ File: ''
# www.blender.org
mtllib TrafficCone.mtl
o cone
v 1.597246 0.000000 0.000000
v 1.597246 0.000000 -1.003789
v 1.597246 0.052309 -1.003789
v 1.597246 0.052309 0.000000
v 1.000645 0.000000 -1.600389
v 0.000000 0.000000 -1.600389
v 0.000000 0.052309 -1.600389
v 1.000645 0.052309 -1.600389
v -1.000243 0.000000 -1.600389
v -1.000243 0.052309 -1.600389
v -1.596858 0.000000 -1.003789
v -1.596858 0.000000 0.000000
v -1.596858 0.052309 0.000000
v -1.596858 0.052309 -1.003789
v -1.596858 -0.000000 0.999439
v -1.596858 0.052309 0.999439
v -1.000243 -0.000000 1.596054
v 0.000000 -0.000000 1.596054
v 0.000000 0.052309 1.596054
v -1.000243 0.052309 1.596054
v 1.000645 -0.000000 1.596054
v 1.000645 0.052309 1.596054
v 1.597246 -0.000000 0.999439
v 1.597246 0.052309 0.999439
v 0.261258 4.139397 -0.108219
v 0.199963 4.139397 -0.199961
v 0.108221 4.139397 -0.261256
v 0.261258 4.139397 0.108223
v 0.000000 4.139397 -0.282788
v -0.108221 4.139397 -0.261256
v -0.261258 4.139397 -0.108219
v -0.199963 4.139397 -0.199961
v -0.282790 4.139397 0.000002
v -0.261258 4.139397 0.108223
v -0.108221 4.139397 0.261259
v -0.199963 4.139397 0.199964
v 0.000000 4.139397 0.282792
v 0.108221 4.139397 0.261259
v 0.199963 4.139397 0.199964
v 0.282790 4.139397 0.000002
v 1.550722 0.115097 0.000000
v 1.550564 0.108924 -0.992779
v 1.115268 0.222959 -0.459110
v 1.205388 0.220188 0.000000
v 0.848312 0.226189 -0.848441
v 0.989850 0.108896 -1.553650
v 0.459038 0.223017 -1.115312
v 0.000000 0.114997 -1.553851
v 0.000000 0.220289 -1.205417
v -0.989477 0.108910 -1.553650
v -0.459038 0.223017 -1.115312
v -0.848298 0.226189 -0.848441
v -1.550176 0.108924 -0.992765
v -1.115268 0.222959 -0.459124
v -1.550334 0.115097 0.000000
v -1.205388 0.220188 0.000000
v -1.550119 0.108939 0.988673
v -1.115268 0.222959 0.459124
v -0.848355 0.226160 0.848312
v -0.989420 0.108938 1.549329
v -0.459139 0.222944 1.115254
v 0.000000 0.115125 1.549545
v 0.000000 0.220160 1.205388
v 0.989793 0.108938 1.549329
v 0.459139 0.222944 1.115254
v 0.848369 0.226160 0.848312
v 1.550506 0.108939 0.988673
v 1.115268 0.222959 0.459110
v 1.146533 0.296843 0.000000
v 1.059256 0.296843 -0.438755
v 0.336161 4.075130 -0.139240
v 0.363851 4.075130 0.000002
v 0.810717 0.296843 -0.810717
v 0.257281 4.075130 -0.257280
v 0.438755 0.296843 -1.059256
v 0.139242 4.075130 -0.336159
v 0.000000 0.296843 -1.146533
v 0.000000 4.075130 -0.363850
v -0.438755 0.296843 -1.059256
v -0.139242 4.075130 -0.336159
v -0.810717 0.296843 -0.810717
v -0.257281 4.075130 -0.257280
v -1.059256 0.296843 -0.438755
v -0.336161 4.075130 -0.139240
v -1.146533 0.296843 0.000000
v -0.363851 4.075130 0.000002
v -1.059256 0.296843 0.438755
v -0.336161 4.075130 0.139243
v -0.810717 0.296843 0.810717
v -0.257281 4.075130 0.257283
v -0.438755 0.296843 1.059256
v -0.139242 4.075130 0.336163
v 0.000000 0.296843 1.146533
v 0.000000 4.075130 0.363853
v 0.438755 0.296843 1.059256
v 0.139242 4.075130 0.336163
v 0.810717 0.296843 0.810717
v 0.257281 4.075130 0.257283
v 1.059256 0.296843 0.438755
v 0.336161 4.075130 0.139243
v 1.161663 0.267445 0.000000
v 1.073797 0.267803 -0.444167
v 0.821397 0.267430 -0.821440
v 0.444152 0.267804 -1.073812
v 0.000000 0.267459 -1.161678
v -0.444152 0.267804 -1.073812
v -0.821397 0.267430 -0.821440
v -1.073797 0.267803 -0.444167
v -1.161663 0.267445 0.000000
v -1.073797 0.267803 0.444167
v -0.821411 0.267430 0.821411
v -0.444181 0.267803 1.073783
v 0.000000 0.267444 1.161663
v 0.444181 0.267803 1.073783
v 0.821411 0.267430 0.821411
v 1.073797 0.267803 0.444167
v 0.313739 4.128760 0.000002
v 0.346913 4.102562 0.000002
v 0.320500 4.102562 -0.132752
v 0.289852 4.128760 -0.120062
v 0.245295 4.102562 -0.245293
v 0.221854 4.128760 -0.221852
v 0.132753 4.102562 -0.320498
v 0.120064 4.128760 -0.289851
v 0.000000 4.102562 -0.346911
v 0.000000 4.128760 -0.313737
v -0.132753 4.102562 -0.320498
v -0.120064 4.128760 -0.289851
v -0.245295 4.102562 -0.245293
v -0.221854 4.128760 -0.221852
v -0.320500 4.102562 -0.132752
v -0.289852 4.128760 -0.120062
v -0.346913 4.102562 0.000002
v -0.313739 4.128760 0.000002
v -0.320500 4.102562 0.132755
v -0.289852 4.128760 0.120065
v -0.245295 4.102562 0.245297
v -0.221854 4.128760 0.221855
v -0.132753 4.102562 0.320502
v -0.120064 4.128760 0.289854
v 0.000000 4.102562 0.346914
v 0.000000 4.128760 0.313740
v 0.132753 4.102562 0.320502
v 0.120064 4.128760 0.289854
v 0.245295 4.102562 0.245297
v 0.221854 4.128760 0.221855
v 0.320500 4.102562 0.132755
v 0.289852 4.128760 0.120065
vt 0.077500 0.693200
vt 0.145800 0.625600
vt 0.149400 0.629200
vt 0.081100 0.696800
vt 0.237700 0.625600
vt 0.305800 0.693000
vt 0.302200 0.696600
vt 0.234200 0.629200
vt 0.373100 0.761100
vt 0.369600 0.764600
vt 0.373200 0.852900
vt 0.305600 0.921200
vt 0.302100 0.917700
vt 0.369600 0.849400
vt 0.237500 0.988500
vt 0.234000 0.984900
vt 0.145700 0.988400
vt 0.077500 0.921100
vt 0.081100 0.917600
vt 0.149200 0.984900
vt 0.010200 0.853000
vt 0.013800 0.849500
vt 0.010200 0.761200
vt 0.013800 0.764700
vt 0.979500 0.107900
vt 0.979500 0.145100
vt 0.965300 0.179500
vt 0.938900 0.047200
vt 0.938900 0.205800
vt 0.904600 0.220000
vt 0.833000 0.205800
vt 0.867400 0.220000
vt 0.806700 0.179500
vt 0.792500 0.145100
vt 0.806700 0.073500
vt 0.792500 0.107900
vt 0.833000 0.047200
vt 0.867400 0.033000
vt 0.904600 0.033000
vt 0.965300 0.073500
vt 0.086300 0.702000
vt 0.153600 0.634900
vt 0.147400 0.701400
vt 0.110600 0.726300
vt 0.191600 0.693100
vt 0.230000 0.634900
vt 0.235700 0.701400
vt 0.297000 0.701800
vt 0.272500 0.726300
vt 0.363900 0.768800
vt 0.297400 0.763100
vt 0.305600 0.807200
vt 0.363900 0.845200
vt 0.297400 0.851300
vt 0.296800 0.912400
vt 0.272500 0.888200
vt 0.229800 0.979200
vt 0.235700 0.912900
vt 0.191500 0.921100
vt 0.153400 0.979100
vt 0.147400 0.912900
vt 0.086300 0.912300
vt 0.110500 0.888100
vt 0.019500 0.845300
vt 0.085700 0.851300
vt 0.077500 0.807200
vt 0.019500 0.768900
vt 0.085700 0.763100
vt 0.334000 0.679300
vt 0.280600 0.621900
vt 0.787400 0.191100
vt 0.803600 0.208700
vt 0.232400 0.560400
vt 0.772600 0.172200
vt 0.189500 0.495200
vt 0.759400 0.152200
vt 0.152100 0.426300
vt 0.747900 0.131100
vt 0.120300 0.354600
vt 0.738200 0.109300
vt 0.095500 0.280800
vt 0.730300 0.086600
vt 0.078400 0.205000
vt 0.724300 0.063600
vt 0.072100 0.128500
vt 0.720100 0.039900
vt 0.885600 0.939300
vt 0.809000 0.933200
vt 0.948800 0.288000
vt 0.972300 0.292100
vt 0.733200 0.916400
vt 0.925700 0.282000
vt 0.659300 0.891800
vt 0.903100 0.274100
vt 0.587600 0.860300
vt 0.881200 0.264400
vt 0.518500 0.823200
vt 0.860200 0.252900
vt 0.453200 0.780500
vt 0.840100 0.239700
vt 0.391600 0.732600
vt 0.821200 0.225000
vt 0.151100 0.623200
vt 0.232400 0.623200
vt 0.232400 0.628200
vt 0.151100 0.628200
vt 0.375600 0.766300
vt 0.375600 0.847600
vt 0.370600 0.847600
vt 0.370600 0.766300
vt 0.232200 0.990900
vt 0.150900 0.990900
vt 0.150900 0.985900
vt 0.232200 0.985900
vt 0.007700 0.847700
vt 0.007800 0.766500
vt 0.012800 0.766500
vt 0.012800 0.847700
vt 0.330000 0.683400
vt 0.322200 0.691200
vt 0.268400 0.632800
vt 0.276300 0.625600
vt 0.220200 0.569200
vt 0.227900 0.563700
vt 0.175300 0.503200
vt 0.184600 0.498000
vt 0.137100 0.433600
vt 0.147000 0.428800
vt 0.105300 0.360900
vt 0.115100 0.356700
vt 0.081100 0.284900
vt 0.090100 0.282300
vt 0.062200 0.207100
vt 0.072800 0.205800
vt 0.055600 0.127900
vt 0.066500 0.128500
vt 0.885700 0.944900
vt 0.886300 0.955800
vt 0.807000 0.949400
vt 0.808300 0.938800
vt 0.729200 0.930800
vt 0.731700 0.921800
vt 0.653100 0.906800
vt 0.657200 0.897000
vt 0.580300 0.875300
vt 0.585100 0.865400
vt 0.510500 0.837300
vt 0.515700 0.828100
vt 0.444500 0.792700
vt 0.449900 0.785100
vt 0.380800 0.744700
vt 0.387900 0.736800
vt 0.267000 0.799900
vt 0.274800 0.799900
vt 0.271200 0.824100
vt 0.263800 0.821800
vt 0.260700 0.846100
vt 0.254300 0.841800
vt 0.244500 0.864200
vt 0.239600 0.858300
vt 0.223600 0.876900
vt 0.220600 0.869700
vt 0.199900 0.882900
vt 0.199100 0.875200
vt 0.175600 0.881800
vt 0.177000 0.874200
vt 0.152600 0.873800
vt 0.156100 0.867000
vt 0.132500 0.859300
vt 0.138000 0.853600
vt 0.138000 0.746200
vt 0.132500 0.740600
vt 0.152600 0.726100
vt 0.156100 0.732900
vt 0.175600 0.718100
vt 0.177000 0.725600
vt 0.199900 0.716900
vt 0.199100 0.724600
vt 0.223600 0.723000
vt 0.220600 0.730100
vt 0.244500 0.735600
vt 0.239600 0.741600
vt 0.260700 0.753800
vt 0.254300 0.758000
vt 0.271200 0.775800
vt 0.263800 0.778000
vt 0.280800 0.799900
vt 0.276800 0.825800
vt 0.265700 0.849400
vt 0.248200 0.868800
vt 0.225900 0.882400
vt 0.200500 0.888800
vt 0.174500 0.887600
vt 0.149800 0.879000
vt 0.128500 0.863800
vt 0.128500 0.736100
vt 0.149800 0.720800
vt 0.174500 0.712200
vt 0.200500 0.711100
vt 0.225900 0.717500
vt 0.248200 0.731100
vt 0.265700 0.750500
vt 0.276800 0.774100
vt 0.261000 0.799900
vt 0.258100 0.820100
vt 0.249300 0.838500
vt 0.235800 0.853700
vt 0.218300 0.864200
vt 0.198500 0.869300
vt 0.178200 0.868300
vt 0.158900 0.861700
vt 0.142500 0.849500
vt 0.142500 0.750400
vt 0.158900 0.738100
vt 0.178200 0.731500
vt 0.198500 0.730500
vt 0.218300 0.735700
vt 0.235800 0.746100
vt 0.249300 0.761300
vt 0.258100 0.779700
vn 1.0000 0.0000 0.0000
vn 0.9239 0.0000 -0.3827
vn 0.8814 0.3111 -0.3553
vn 0.9455 0.3255 0.0000
vn 0.3827 0.0000 -0.9239
vn 0.0000 0.0000 -1.0000
vn 0.0000 0.3258 -0.9454
vn 0.3550 0.3114 -0.8815
vn -0.3827 0.0000 -0.9239
vn -0.3550 0.3113 -0.8815
vn -0.9239 0.0000 -0.3827
vn -1.0000 0.0000 0.0000
vn -0.9455 0.3255 0.0000
vn -0.8814 0.3111 -0.3554
vn -0.9239 0.0000 0.3827
vn -0.8816 0.3110 0.3551
vn -0.3827 0.0000 0.9239
vn 0.0000 0.0000 1.0000
vn -0.0000 0.3254 0.9456
vn -0.3551 0.3110 0.8816
vn 0.3827 0.0000 0.9239
vn 0.3552 0.3110 0.8816
vn 0.9239 0.0000 0.3827
vn 0.8816 0.3111 0.3551
vn 0.1706 0.9828 -0.0707
vn 0.1306 0.9828 -0.1306
vn 0.0707 0.9828 -0.1706
vn 0.1706 0.9828 0.0707
vn -0.0000 0.9828 -0.1847
vn -0.0707 0.9828 -0.1706
vn -0.1706 0.9828 -0.0707
vn -0.1306 0.9828 -0.1306
vn -0.1847 0.9828 0.0000
vn -0.1706 0.9828 0.0707
vn -0.0707 0.9828 0.1706
vn -0.1306 0.9828 0.1306
vn 0.0000 0.9828 0.1847
vn 0.0707 0.9828 0.1706
vn 0.1306 0.9828 0.1306
vn 0.1847 0.9828 -0.0000
vn 0.5514 0.8343 0.0000
vn 0.5227 0.8183 -0.2390
vn 0.4374 0.8862 -0.1528
vn 0.4838 0.8752 0.0000
vn 0.3151 0.8952 -0.3151
vn 0.2392 0.8185 -0.5224
vn 0.1528 0.8866 -0.4366
vn 0.0000 0.8349 -0.5504
vn 0.0000 0.8758 -0.4827
vn -0.2392 0.8185 -0.5224
vn -0.1528 0.8866 -0.4366
vn -0.3152 0.8952 -0.3151
vn -0.5228 0.8183 -0.2390
vn -0.4375 0.8861 -0.1528
vn -0.5515 0.8342 0.0000
vn -0.4839 0.8751 0.0000
vn -0.5230 0.8180 0.2396
vn -0.4376 0.8861 0.1530
vn -0.3156 0.8949 0.3156
vn -0.2395 0.8179 0.5231
vn -0.1530 0.8859 0.4378
vn -0.0000 0.8340 0.5517
vn -0.0000 0.8749 0.4842
vn 0.2394 0.8180 0.5230
vn 0.1530 0.8860 0.4378
vn 0.3156 0.8949 0.3156
vn 0.5229 0.8180 0.2395
vn 0.4375 0.8861 0.1530
vn 0.9393 0.3431 0.0000
vn 0.8676 0.3425 -0.3604
vn 0.8610 0.3626 -0.3566
vn 0.9319 0.3626 0.0000
vn 0.6646 0.3416 -0.6645
vn 0.6590 0.3627 -0.6590
vn 0.3605 0.3426 -0.8676
vn 0.3566 0.3626 -0.8610
vn -0.0000 0.3433 -0.9392
vn 0.0000 0.3626 -0.9319
vn -0.3605 0.3426 -0.8676
vn -0.3566 0.3626 -0.8610
vn -0.6646 0.3416 -0.6645
vn -0.6590 0.3627 -0.6590
vn -0.8676 0.3425 -0.3604
vn -0.8610 0.3626 -0.3566
vn -0.9393 0.3431 0.0000
vn -0.9319 0.3626 -0.0000
vn -0.8676 0.3425 0.3604
vn -0.8610 0.3626 0.3566
vn -0.6646 0.3415 0.6646
vn -0.6590 0.3627 0.6590
vn -0.3604 0.3424 0.8677
vn -0.3566 0.3626 0.8610
vn -0.0000 0.3430 0.9393
vn -0.0000 0.3626 0.9319
vn 0.3604 0.3424 0.8677
vn 0.3566 0.3626 0.8610
vn 0.6646 0.3415 0.6646
vn 0.6590 0.3627 0.6590
vn 0.8676 0.3425 0.3604
vn 0.8610 0.3626 0.3566
vn 0.8057 0.5923 -0.0000
vn 0.7448 0.5914 -0.3090
vn 0.5712 0.5895 -0.5712
vn 0.3089 0.5918 -0.7445
vn -0.0000 0.5929 -0.8053
vn -0.3090 0.5918 -0.7445
vn -0.5712 0.5895 -0.5712
vn -0.7448 0.5914 -0.3090
vn -0.8057 0.5923 -0.0000
vn -0.7449 0.5913 0.3091
vn -0.5713 0.5891 0.5714
vn -0.3091 0.5912 0.7449
vn -0.0000 0.5921 0.8058
vn 0.3091 0.5912 0.7449
vn 0.5713 0.5892 0.5714
vn 0.7449 0.5913 0.3091
vn 0.4950 0.8689 -0.0000
vn 0.7559 0.6547 0.0000
vn 0.6983 0.6547 -0.2893
vn 0.4574 0.8689 -0.1895
vn 0.5345 0.6547 -0.5345
vn 0.3501 0.8688 -0.3501
vn 0.2893 0.6547 -0.6983
vn 0.1895 0.8689 -0.4574
vn 0.0000 0.6547 -0.7559
vn -0.0000 0.8689 -0.4950
vn -0.2893 0.6547 -0.6983
vn -0.1895 0.8689 -0.4574
vn -0.5345 0.6547 -0.5345
vn -0.3501 0.8688 -0.3501
vn -0.6983 0.6547 -0.2893
vn -0.4574 0.8689 -0.1895
vn -0.7559 0.6547 0.0000
vn -0.4950 0.8689 0.0000
vn -0.6983 0.6547 0.2893
vn -0.4574 0.8689 0.1895
vn -0.5345 0.6547 0.5345
vn -0.3501 0.8688 0.3501
vn -0.2893 0.6547 0.6983
vn -0.1895 0.8689 0.4574
vn -0.0000 0.6547 0.7559
vn 0.0000 0.8689 0.4950
vn 0.2893 0.6547 0.6983
vn 0.1895 0.8689 0.4574
vn 0.5345 0.6547 0.5345
vn 0.3501 0.8688 0.3501
vn 0.6983 0.6547 0.2893
vn 0.4574 0.8689 0.1895
vn 0.0000 -1.0000 -0.0000
usemtl None
s 1
f 1/1/1 2/2/2 3/3/3 4/4/4
f 5/5/5 6/6/6 7/7/7 8/8/8
f 6/6/6 9/9/9 10/10/10 7/7/7
f 11/11/11 12/12/12 13/13/13 14/14/14
f 12/12/12 15/15/15 16/16/16 13/13/13
f 17/17/17 18/18/18 19/19/19 20/20/20
f 18/18/18 21/21/21 22/22/22 19/19/19
f 23/23/23 1/1/1 4/4/4 24/24/24
f 25/25/25 26/26/26 27/27/27 28/28/28
f 27/27/27 29/29/29 30/30/30 31/31/31
f 30/30/30 32/32/32 31/31/31
f 31/31/31 33/33/33 34/34/34 35/35/35
f 34/34/34 36/36/36 35/35/35
f 35/35/35 37/37/37 38/38/38 28/28/28
f 38/38/38 39/39/39 28/28/28
f 31/31/31 35/35/35 28/28/28 27/27/27
f 40/40/40 25/25/25 28/28/28
f 41/41/41 42/42/42 43/43/43 44/44/44
f 42/42/42 45/45/45 43/43/43
f 45/45/45 46/46/46 47/47/47
f 46/46/46 48/48/48 49/49/49 47/47/47
f 48/48/48 50/50/50 51/51/51 49/49/49
f 50/50/50 52/52/52 51/51/51
f 52/52/52 53/53/53 54/54/54
f 53/53/53 55/55/55 56/56/56 54/54/54
f 55/55/55 57/57/57 58/58/58 56/56/56
f 57/57/57 59/59/59 58/58/58
f 59/59/59 60/60/60 61/61/61
f 60/60/60 62/62/62 63/63/63 61/61/61
f 62/62/62 64/64/64 65/65/65 63/63/63
f 64/64/64 66/66/66 65/65/65
f 66/66/66 67/67/67 68/68/68
f 67/67/67 41/41/41 44/44/44 68/68/68
f 69/69/69 70/70/70 71/71/71 72/72/72
f 70/70/70 73/73/73 74/74/74 71/71/71
f 73/73/73 75/75/75 76/76/76 74/74/74
f 75/75/75 77/77/77 78/78/78 76/76/76
f 77/77/77 79/79/79 80/80/80 78/78/78
f 79/79/79 81/81/81 82/82/82 80/80/80
f 81/81/81 83/83/83 84/84/84 82/82/82
f 83/83/83 85/85/85 86/86/86 84/84/84
f 85/87/85 87/88/87 88/89/88 86/90/86
f 87/88/87 89/91/89 90/92/90 88/89/88
f 89/91/89 91/93/91 92/94/92 90/92/90
f 91/93/91 93/95/93 94/96/94 92/94/92
f 93/95/93 95/97/95 96/98/96 94/96/94
f 95/97/95 97/99/97 98/100/98 96/98/96
f 97/99/97 99/101/99 100/102/100 98/100/98
f 99/101/99 69/69/69 72/72/72 100/102/100
f 46/46/46 45/45/45 42/42/42
f 53/53/53 52/52/52 50/50/50
f 60/60/60 59/59/59 57/57/57
f 67/67/67 66/66/66 64/64/64
f 2/103/2 5/104/5 8/105/8 3/106/3
f 9/107/9 11/108/11 14/109/14 10/110/10
f 15/111/15 17/112/17 20/113/20 16/114/16
f 21/115/21 23/116/23 24/117/24 22/118/22
f 101/119/101 44/120/44 43/121/43 102/122/102
f 102/122/102 43/121/43 45/123/45 103/124/103
f 103/124/103 45/123/45 47/125/47 104/126/104
f 104/126/104 47/125/47 49/127/49 105/128/105
f 105/128/105 49/127/49 51/129/51 106/130/106
f 106/130/106 51/129/51 52/131/52 107/132/107
f 107/132/107 52/131/52 54/133/54 108/134/108
f 108/134/108 54/133/54 56/135/56 109/136/109
f 109/137/109 56/138/56 58/139/58 110/140/110
f 110/140/110 58/139/58 59/141/59 111/142/111
f 111/142/111 59/141/59 61/143/61 112/144/112
f 112/144/112 61/143/61 63/145/63 113/146/113
f 113/146/113 63/145/63 65/147/65 114/148/114
f 114/148/114 65/147/65 66/149/66 115/150/115
f 115/150/115 66/149/66 68/151/68 116/152/116
f 116/152/116 68/151/68 44/120/44 101/119/101
f 117/153/117 118/154/118 119/155/119 120/156/120
f 120/156/120 119/155/119 121/157/121 122/158/122
f 122/158/122 121/157/121 123/159/123 124/160/124
f 124/160/124 123/159/123 125/161/125 126/162/126
f 126/162/126 125/161/125 127/163/127 128/164/128
f 128/164/128 127/163/127 129/165/129 130/166/130
f 130/166/130 129/165/129 131/167/131 132/168/132
f 132/168/132 131/167/131 133/169/133 134/170/134
f 134/171/134 133/172/133 135/173/135 136/174/136
f 136/174/136 135/173/135 137/175/137 138/176/138
f 138/176/138 137/175/137 139/177/139 140/178/140
f 140/178/140 139/177/139 141/179/141 142/180/142
f 142/180/142 141/179/141 143/181/143 144/182/144
f 144/182/144 143/181/143 145/183/145 146/184/146
f 146/184/146 145/183/145 147/185/147 148/186/148
f 148/186/148 147/185/147 118/154/118 117/153/117
f 41/41/41 4/4/4 3/3/3 42/42/42
f 46/46/46 8/8/8 7/7/7 48/48/48
f 48/48/48 7/7/7 10/10/10 50/50/50
f 53/53/53 14/14/14 13/13/13 55/55/55
f 55/55/55 13/13/13 16/16/16 57/57/57
f 60/60/60 20/20/20 19/19/19 62/62/62
f 62/62/62 19/19/19 22/22/22 64/64/64
f 67/67/67 24/24/24 4/4/4 41/41/41
f 42/42/42 3/106/3 8/105/8 46/46/46
f 50/50/50 10/110/10 14/109/14 53/53/53
f 57/57/57 16/114/16 20/113/20 60/60/60
f 64/64/64 22/118/22 24/117/24 67/67/67
f 118/154/118 72/187/72 71/188/71 119/155/119
f 119/155/119 71/188/71 74/189/74 121/157/121
f 121/157/121 74/189/74 76/190/76 123/159/123
f 123/159/123 76/190/76 78/191/78 125/161/125
f 125/161/125 78/191/78 80/192/80 127/163/127
f 127/163/127 80/192/80 82/193/82 129/165/129
f 129/165/129 82/193/82 84/194/84 131/167/131
f 131/167/131 84/194/84 86/195/86 133/169/133
f 133/172/133 86/196/86 88/197/88 135/173/135
f 135/173/135 88/197/88 90/198/90 137/175/137
f 137/175/137 90/198/90 92/199/92 139/177/139
f 139/177/139 92/199/92 94/200/94 141/179/141
f 141/179/141 94/200/94 96/201/96 143/181/143
f 143/181/143 96/201/96 98/202/98 145/183/145
f 145/183/145 98/202/98 100/203/100 147/185/147
f 147/185/147 100/203/100 72/187/72 118/154/118
f 40/204/40 117/153/117 120/156/120 25/205/25
f 25/205/25 120/156/120 122/158/122 26/206/26
f 26/206/26 122/158/122 124/160/124 27/207/27
f 27/207/27 124/160/124 126/162/126 29/208/29
f 29/208/29 126/162/126 128/164/128 30/209/30
f 30/209/30 128/164/128 130/166/130 32/210/32
f 32/210/32 130/166/130 132/168/132 31/211/31
f 31/211/31 132/168/132 134/170/134 33/212/33
f 33/213/33 134/171/134 136/174/136 34/214/34
f 34/214/34 136/174/136 138/176/138 36/215/36
f 36/215/36 138/176/138 140/178/140 35/216/35
f 35/216/35 140/178/140 142/180/142 37/217/37
f 37/217/37 142/180/142 144/182/144 38/218/38
f 38/218/38 144/182/144 146/184/146 39/219/39
f 39/219/39 146/184/146 148/186/148 28/220/28
f 28/220/28 148/186/148 117/153/117 40/204/40
f 69/69/69 101/119/101 102/122/102 70/70/70
f 70/70/70 102/122/102 103/124/103 73/73/73
f 73/73/73 103/124/103 104/126/104 75/75/75
f 75/75/75 104/126/104 105/128/105 77/77/77
f 77/77/77 105/128/105 106/130/106 79/79/79
f 79/79/79 106/130/106 107/132/107 81/81/81
f 81/81/81 107/132/107 108/134/108 83/83/83
f 83/83/83 108/134/108 109/136/109 85/85/85
f 85/87/85 109/137/109 110/140/110 87/88/87
f 87/88/87 110/140/110 111/142/111 89/91/89
f 89/91/89 111/142/111 112/144/112 91/93/91
f 91/93/91 112/144/112 113/146/113 93/95/93
f 93/95/93 113/146/113 114/148/114 95/97/95
f 95/97/95 114/148/114 115/150/115 97/99/97
f 97/99/97 115/150/115 116/152/116 99/101/99
f 99/101/99 116/152/116 101/119/101 69/69/69
f 1/1/149 23/23/149 21/115/149 18/18/149 17/17/149 15/111/149 12/12/149 11/11/149 9/107/149 6/6/149 5/5/149 2/103/149
